<svg xmlns="http://www.w3.org/2000/svg" width="276" height="50" viewbox="0 0 276 50">
  <style>
  .st0 {
    fill: #4c4c4d
  }
  </style>
  <path d="M155.2 39.6h-6.8l-12-25.3-11.3 25.3h-6L136.8 0l18.4 39.6M32.1 15.9s-2-1.2-3.2-1.8c-2.1-1.1-5.5-2.2-9-2.2-7.1 0-13.5 3.2-13.5 11.4s6.4 11.5 14 11.5c4 0 7.6-1.4 9.7-3 1.2-.9 2.9-2.4 2.9-2.4l3.4 4.9s-1.6 1.1-2.7 1.8c-2.2 1.6-6.3 4-13.9 4-10 0-19.8-5-19.8-16.7C0 12.9 9.2 6.6 20.2 6.6 25.1 6.6 29 8 31.5 9c1.5.6 3.8 1.8 3.8 1.8l-3.2 5.1M119 44.8h36.2V50H119v-5.2m139.7-24.6h8.5v6.3h-8.5v-6.3m-12.7-.1v-13h30.4v5.3h-24v7.7H246m6.4 6.4v7.9h24v5.3H246V26.5h6.4m-197.2-6H63c3.2 0 5.8-1.2 5.8-4.1 0-2.8-2.6-4.1-5.8-4.1H49.4v27.3H43V7.1h20.3c7.8 0 11.9 4.1 11.9 9.3 0 5.3-3.3 8.7-8.8 9.5l8.3 11.7c.6.9 1.4 2 1.4 2h-7.8L54.9 20.5h.3m117.5 19.1h-6.4V12.3h-12.9V7.1h32.2v5.2h-12.9v27.3m26 0h-6.3V7.1h6.3v32.5M234.5 7l-10.9 24-11-24h-7l14.8 32.5 6.3.1L241.5 7h-7M96.8 20.1h8.6v6.3h-8.6v-6.3M84.1 20V7h30.4v5.3h-24V20h-6.4m6.4 6.4v7.9h24v5.2H84.1V26.4h6.4" class="st0" />
</svg>
