<?xml version="1.0" encoding="iso-8859-1"?>
<!-- Uploaded to: SVG Repo, www.svgrepo.com, Generator: SVG Repo Mixer Tools -->
<svg height="800px" width="800px" version="1.1" id="Layer_1" xmlns="http://www.w3.org/2000/svg" xmlns:xlink="http://www.w3.org/1999/xlink" 
	 viewBox="0 0 512 512" xml:space="preserve">
<path style="fill:#97C2F7;" d="M82.988,236.853c0,16.481,2.507,32.37,7.172,47.318l-0.021,0.011H76.292
	c-18.153,0-34.571-7.352-46.471-19.242c-11.89-11.89-19.242-28.319-19.242-46.461h72.41V236.853z"/>
<path style="fill:#F0C419;" d="M400.672,124.329h100.75c0,30.963-25.103,56.056-56.066,56.056h-44.684V124.329z"/>
<path style="fill:#E1EBF7;" d="M400.672,115.591v8.738v56.056v38.093v18.375c0,43.858-17.772,83.57-46.524,112.323
	c-28.742,28.742-68.443,46.524-112.312,46.524c-71.246,0-131.544-46.905-151.675-111.529c-4.665-14.947-7.172-30.836-7.172-47.318
	v-18.375h65.714c0,51.433,41.69,93.123,93.133,93.123c25.716,0,49-10.42,65.851-27.271c16.862-16.852,27.282-40.135,27.282-65.851
	h-74.251V115.591c0-38.643,31.334-69.977,69.977-69.977c19.327,0,36.824,7.828,49.486,20.501
	C392.844,78.778,400.672,96.264,400.672,115.591z"/>
<path style="fill:#97C2F7;" d="M334.969,218.478c0,25.716-10.42,49-27.282,65.851c-16.852,16.852-40.135,27.271-65.851,27.271
	c-51.443,0-93.133-41.69-93.133-93.123h112.016H334.969z"/>
<path d="M347.06,142.62c5.843,0,10.578-4.736,10.578-10.579v-15.434c0-5.843-4.736-10.579-10.578-10.579
	s-10.579,4.736-10.579,10.579v15.434C336.481,137.883,341.217,142.62,347.06,142.62z"/>
<path d="M318.609,272.272c1.607,0.875,3.341,1.291,5.05,1.291c3.749,0,7.381-1.997,9.3-5.521c0.489-0.897,0.965-1.803,1.428-2.716
	c2.64-5.211,0.555-11.577-4.656-14.216c-5.211-2.64-11.577-0.555-14.216,4.656c-0.368,0.727-0.747,1.445-1.135,2.159
	C311.584,263.053,313.477,269.477,318.609,272.272z"/>
<path d="M76.292,294.76h6.292c11.217,30.749,31.562,58.188,57.911,77.883c26.609,19.889,57.796,31.301,90.76,33.312v60.431
	c0,5.843,4.736,10.579,10.579,10.579h44.483c5.842,0,10.578-4.736,10.578-10.579s-4.736-10.579-10.578-10.579h-33.904v-49.864
	c41.27-2.526,79.721-19.794,109.214-49.286c32-32,49.623-74.547,49.623-119.803v-18.375v-27.515h34.106
	c36.748,0,66.645-29.892,66.645-66.634c0-5.843-4.736-10.579-10.578-10.579h-90.217c-0.464-20.826-8.767-40.338-23.541-55.112
	c-15.207-15.221-35.439-23.604-56.968-23.604c-44.418,0-80.555,36.137-80.555,80.555v92.308H148.702H10.579
	C4.736,207.899,0,212.635,0,218.478c0,20.377,7.934,39.534,22.344,53.945C36.761,286.827,55.921,294.76,76.292,294.76z
	 M445.355,169.806H411.25v-34.899h78.351C484.818,154.899,466.796,169.806,445.355,169.806z M260.718,229.057
	c5.842,0,10.579-4.736,10.579-10.579V115.591c0-32.752,26.645-59.398,59.398-59.398c15.875,0,30.792,6.179,42.006,17.403
	c11.215,11.216,17.392,26.13,17.392,41.996v102.887v18.375c0,39.605-15.422,76.839-43.426,104.843
	c-28.003,28.003-65.233,43.426-104.832,43.426c-65.285,0-122.18-41.833-141.576-104.103c-4.44-14.226-6.692-29.086-6.692-44.165
	v-7.796h45.092c5.317,52.231,49.56,93.123,103.176,93.123c26.567,0,51.834-10.032,71.145-28.247
	c4.25-4.009,4.446-10.704,0.438-14.954c-4.01-4.25-10.704-4.446-14.954-0.438c-15.371,14.497-35.481,22.48-56.629,22.48
	c-41.937,0-76.671-31.429-81.88-71.966h100.762V229.057z M72.41,229.057v7.796c0,12.435,1.35,24.744,4.008,36.75h-0.126
	c-14.724,0-28.573-5.735-38.991-16.144c-7.873-7.873-13.07-17.707-15.137-28.403H72.41V229.057z"/>
</svg>